<svg width="37" height="36" viewBox="0 0 37 36" fill="none" xmlns="http://www.w3.org/2000/svg">
<path fill-rule="evenodd" clip-rule="evenodd" d="M6.47319 5.625C5.90536 2.7 8.17666 0 11.1293 0C13.7413 0 15.8991 2.1375 15.8991 4.725V10.575C16.5804 10.575 17.2618 10.4625 17.9432 10.4625C18.6246 10.4625 19.1924 10.4625 19.8738 10.575V4.725C19.8738 2.1375 22.0315 0 24.6435 0C27.5962 0 29.8675 2.7 29.4132 5.625L28.164 12.4875C32.5931 14.4 35.9115 17.3933 36.4129 21.7398V23.2299V24.6375C36.177 28.1048 33.7287 30.9375 30.4353 32.85C27.142 34.875 22.8265 36 17.9432 36C13.0599 36 8.74448 34.875 5.4511 32.85C2.27129 30.9375 0 28.0125 0 24.525V21.9375C0 17.775 3.29338 14.4 7.7224 12.4875L6.47319 5.625ZM26.4606 13.3875L27.9369 5.2875C28.2776 3.2625 26.8013 1.35 24.6435 1.35C22.8265 1.35 21.3502 2.8125 21.3502 4.6125V12.0375C20.8959 11.925 20.3281 11.925 19.8738 11.925C19.1924 11.925 18.6246 11.8125 17.9432 11.8125C17.2618 11.8125 16.5804 11.8125 15.8991 11.925C15.4448 11.925 14.877 12.0375 14.4227 12.0375V4.725C14.4227 2.925 12.9464 1.4625 11.1293 1.4625C9.08517 1.4625 7.49527 3.375 7.94953 5.4L9.42587 13.5C4.65615 15.3 1.47634 18.45 1.47634 22.05V24.6375C1.47634 30.15 8.85804 34.65 17.9432 34.65C27.0284 34.65 34.4101 30.15 34.4101 24.6375V22.05C34.5237 18.3375 31.3438 15.1875 26.4606 13.3875Z" fill="white"/>
<path fill-rule="evenodd" clip-rule="evenodd" d="M7.94954 5.39999C7.49528 3.37499 9.08519 1.46249 11.1294 1.46249C12.9464 1.46249 14.4227 2.92499 14.4227 4.72499L14.4991 11.806C15.6347 11.6935 16.6416 11.5722 17.8909 11.5722C19.0265 11.5722 20.0585 11.6935 21.1942 11.806V4.23871C21.1942 2.43871 23.1818 0.937164 24.9988 0.937164C27.043 0.937164 28.2776 3.37499 27.9369 5.39999L26.6505 13.296C31.4202 15.096 35.941 18.9871 35.941 22.5871C35.0857 29.5116 27.0645 35.4719 17.9793 35.4719C8.89417 35.4719 -0.0118125 30.1836 0.489581 23.1714C0.489581 19.5714 4.47949 15.3006 9.24921 13.5006L7.94954 5.39999Z" fill="white"/>
</svg>
