<svg width="58" height="77" viewBox="0 0 58 77" fill="none" xmlns="http://www.w3.org/2000/svg">
<path fill-rule="evenodd" clip-rule="evenodd" d="M57.4642 31.4515C58.6584 23.4668 52.5794 19.1747 44.2668 16.3115L46.9635 5.49551L40.3794 3.85493L37.7543 14.3861C36.0234 13.9544 34.2459 13.5477 32.4792 13.1444L35.1234 2.5437L28.5435 0.90312L25.8453 11.7156C24.413 11.3894 23.0062 11.0671 21.6413 10.7275L21.6489 10.6935L12.5694 8.4262L10.818 15.4583C10.818 15.4583 15.7027 16.5781 15.5998 16.647C18.266 17.3124 18.7481 19.0773 18.668 20.4763L15.5963 32.7982C15.7799 32.8448 16.018 32.9123 16.2808 33.0179L16.0898 32.9702L16.0896 32.9701C15.9271 32.9295 15.7582 32.8872 15.5848 32.8457L11.2793 50.107C10.9535 50.917 10.1264 52.1326 8.26236 51.671C8.32835 51.7666 3.477 50.4768 3.477 50.4768L0.208164 58.0133L8.77618 60.1493C9.71439 60.3846 10.6415 60.6262 11.5593 60.8655L11.5611 60.866C12.2019 61.033 12.8381 61.1989 13.4703 61.3605L10.7458 72.3005L17.3222 73.9411L20.0203 63.1172C21.8169 63.6049 23.5604 64.0548 25.2673 64.4789L22.5783 75.2517L29.1626 76.8923L31.8868 65.9728C43.1139 68.0976 51.5558 67.2409 55.1092 57.086C57.9724 48.9101 54.9666 44.1943 49.0601 41.119C53.3621 40.1268 56.6025 37.2973 57.4665 31.4524L57.4644 31.4509L57.4642 31.4515ZM42.4212 52.5455C40.5544 60.0467 28.8131 56.9455 23.441 55.5266C22.9578 55.399 22.5261 55.285 22.1577 55.1935L25.7732 40.6999C26.2221 40.812 26.7706 40.9351 27.3921 41.0745L27.3922 41.0745C32.9489 42.3216 44.3339 44.8766 42.4215 52.5455H42.4212ZM28.5068 34.3478C32.9855 35.5431 42.7559 38.1506 44.4574 31.333H44.458C46.1955 24.3603 36.7004 22.2581 32.063 21.2314C31.5413 21.1159 31.081 21.014 30.7052 20.9203L27.4273 34.0651C27.7368 34.1423 28.0999 34.2392 28.5068 34.3478Z" fill="white"/>
</svg>
